<?xml version="1.0" encoding="UTF-8"?>
<svg width="338px" height="423px" viewBox="0 0 338 423" version="1.1" xmlns="http://www.w3.org/2000/svg" xmlns:xlink="http://www.w3.org/1999/xlink">
    <!-- Generator: Sketch 44.1 (41455) - http://www.bohemiancoding.com/sketch -->
    <title>Group 5</title>
    <desc>Created with Sketch.</desc>
    <defs></defs>
    <g id="Page-1" stroke="none" stroke-width="1" fill="none" fill-rule="evenodd">
        <g id="404" transform="translate(-548.000000, -218.000000)">
            <g id="Group-5" transform="translate(549.000000, 220.000000)">
                <circle id="Oval-3" fill="#EBEDED" cx="196.5" cy="210.5" r="101.5"></circle>
                <g id="Group" transform="translate(102.360675, 313.255046) rotate(1.000000) translate(-102.360675, -313.255046) translate(1.860675, 205.755046)" stroke="#41474A" stroke-width="3" fill="#FFFFFF">
                    <path d="M100.453554,144.170703 C108.442545,168.416361 139.945566,175.253748 152.629362,157.008293 C162.256656,143.159573 161.561307,130.87926 152.733656,120.558105 C145.259599,111.819553 132.175605,105.293063 120.677318,103.836005 C116.807582,103.345633 113.176422,103.111233 109.749693,103.164726 C100.242332,119.037913 96.7486766,132.92683 100.453554,144.170703 Z M101.217908,103.984651 C102.412841,101.788532 103.716938,99.5639137 105.126162,97.3117866 C105.327354,96.9902555 105.529978,96.6691085 105.734044,96.3483151 C113.847755,83.593498 124.240606,71.3977891 137.485064,57.8463792 C138.836153,56.4639776 141.052086,56.4385937 142.434487,57.7896828 C143.816889,59.1407718 143.842273,61.3567039 142.491184,62.7391055 C130.920661,74.5777845 121.602969,85.3288033 114.182798,96.242109 C113.102044,97.8316405 112.061545,99.4246149 111.060202,101.024894 C110.611428,101.742095 110.174558,102.455392 109.749697,103.164726 M101.217908,103.984651 C90.6839517,105.960311 82.1717872,111.5921 74.336175,122.137724 C69.270681,128.955161 66.781641,138.390936 66.0949288,150.929692 C65.8040399,156.241065 65.8232035,160.841233 66.05089,169.625028 C66.3942234,182.870306 66.2913512,187.105023 64.9952464,191.446934 C60.9331333,205.054888 49.3528291,214.083901 35.8101266,214.871774 C21.6937586,215.693021 8.2856387,207.539089 0.368904189,192.037702 M6.6029566,188.853901 C13.2879321,201.943439 24.1338796,208.539227 35.4035753,207.88359 C46.026075,207.265605 55.073794,200.211216 58.2877184,189.444668 C59.2699285,186.154295 59.3701048,182.030556 59.0532405,169.806416 C58.8208438,160.84091 58.8011068,156.10308 59.1054033,150.546895 C59.8603286,136.762627 62.6739034,126.096565 68.7174069,117.962865 C79.0938484,103.997645 90.8726063,97.495616 105.734044,96.3483151 M114.182798,96.242109 C116.564435,96.3513329 119.020776,96.5701096 121.557318,96.8915392 C134.709706,98.5582046 149.392569,105.882234 158.053301,116.008229 C168.938396,128.734915 169.832496,144.52531 158.376982,161.003899 C142.226697,184.235847 103.516536,175.834229 93.805169,146.361358 C89.7105401,133.934636 92.6733917,119.68826 101.217908,103.984651 L101.217908,103.984651" id="Path-2" fill-rule="nonzero"></path>
                    <path d="M198.659859,17.7467559 C199.623405,18.7363442 200.105171,19.9147178 200.105171,21.2819121 C200.105171,22.6491065 199.623405,23.8274801 198.659859,24.8170684 L182.995796,40.4420684 L188.855171,46.3014434 L182.605171,52.5514434 C178.360358,56.7962563 173.288795,59.2246174 167.390328,59.8365996 C161.491861,60.4485819 156.133841,59.1400012 151.316109,55.9108184 L142.351185,64.9833513 L137.049955,62.8599092 L135.280872,57.9130388 L144.245796,48.8405059 C141.016614,44.0227735 139.708033,38.6647541 140.320015,32.7662871 C140.931997,26.8678201 143.360358,21.7962563 147.605171,17.5514434 L153.855171,11.3014434 L159.714546,17.1608184 L175.339546,1.49675589 C176.329135,0.533209406 177.514019,0.0514433903 178.894234,0.0514433903 C180.274449,0.0514433903 181.446312,0.533209406 182.409859,1.49675589 C183.373405,2.46030237 183.855171,3.63867601 183.855171,5.03191214 C183.855171,6.42514827 183.373405,7.60352191 182.409859,8.56706839 L166.784859,24.2311309 L175.925484,33.3717559 L191.589546,17.7467559 C192.579135,16.7832094 193.764019,16.3014434 195.144234,16.3014434 C196.524449,16.3014434 197.696312,16.7832094 198.659859,17.7467559 Z" id="plug---FontAwesome" stroke-linecap="round" stroke-linejoin="round"></path>
                </g>
                <g id="Group-2" transform="translate(195.000000, 0.000000)" stroke="#41474A" stroke-width="3" fill="#FFFFFF">
                    <path d="M100.360134,42.2659583 C85.8612128,8.22962754 47.1773526,-2.3282709 22.1975863,19.6718767 C10.317113,30.135232 7.89711677,44.532565 14.1582881,59.1967622 C20.1081014,73.1317324 33.0928906,84.8772479 47.3295026,88.955481 C63.6695503,93.6362662 79.2243,92.2756454 94.7487464,85.5588999 C96.8976556,84.6291614 99.0375739,83.6029759 101.176435,82.4779682 C104.888844,67.8017102 105.064398,53.3092562 100.360134,42.2659583 Z M110.539686,76.9261725 C110.15501,79.0415082 109.694983,81.180396 109.161513,83.3389917 C108.785604,84.860044 108.374052,86.3837856 107.929274,87.9058446 C104.272238,100.420478 98.3690602,112.821363 91.5640643,122.678427 C85.3323509,131.705089 80.0100201,138.533049 75.2108812,143.898842 C73.4120353,145.910085 71.7760542,147.619601 70.049069,149.327148 C69.4023604,149.966578 67.1673159,152.125767 66.7320029,152.565012 C65.1769453,154.134118 62.644311,154.145505 61.0752059,152.590448 C59.5061007,151.03539 59.494713,148.502756 61.0497706,146.933651 C61.5594608,146.419356 63.8354535,144.220608 64.4243204,143.63837 C66.0400947,142.040782 67.5640511,140.448326 69.2479382,138.565615 C73.8146552,133.459687 78.9322436,126.894389 84.9805544,118.133386 C90.3005429,110.427362 94.7297422,101.764995 97.9646825,92.8841601 C99.2214469,89.4339827 100.297962,85.9508319 101.176433,82.4779733 M110.539686,76.9261725 C118.476826,71.6980406 126.55668,65.0793303 135.176947,56.9509715 M140.665293,62.7714581 C129.231448,73.5528404 118.622949,81.8504641 107.929274,87.9058446 M97.9646825,92.8841601 C80.7566749,100.329319 63.3110542,101.85534 45.1264253,96.646154 C28.5391518,91.8945482 13.6827046,78.4560065 6.80086837,62.3381592 C-0.751312964,44.6503064 2.29237304,26.5424428 16.9101319,13.668309 C46.1190271,-12.0565117 91.15077,0.233900012 107.720172,39.130702 C112.330711,49.9539776 113.085975,62.9241045 110.539686,76.9261725 L110.539686,76.9261725" id="Path-3" fill-rule="nonzero"></path>
                    <g id="Group" transform="translate(33.758431, 180.476184) rotate(-180.000000) translate(-33.758431, -180.476184) translate(0.258431, 147.476184)" stroke-linecap="round" stroke-linejoin="round">
                        <path d="M66.8551714,35.3014434 L50.6051714,51.5514434 C46.3603585,55.7962563 41.2887946,58.2246174 35.3903276,58.8365996 C29.4918606,59.4485819 24.1338413,58.1400012 19.3161089,54.9108184 L7.84169735,65.7591714 L3.01833075,64.0297162 L0.77138485,58.6888589 L12.2457964,47.8405059 C9.01661354,43.0227735 7.70803288,37.6647541 8.3200151,31.7662871 C8.93199733,25.8678201 11.3603585,20.7962563 15.6051714,16.5514434 L31.8551714,0.30144339 L66.8551714,35.3014434 Z" id="plug---FontAwesome"></path>
                    </g>
                </g>
            </g>
        </g>
    </g>
</svg>