<?xml version="1.0" encoding="UTF-8"?>
<svg width="32px" height="61px" viewBox="0 0 32 61" version="1.1" xmlns="http://www.w3.org/2000/svg" xmlns:xlink="http://www.w3.org/1999/xlink">
    <!-- Generator: Sketch 44.1 (41455) - http://www.bohemiancoding.com/sketch -->
    <title></title>
    <desc>Created with Sketch.</desc>
    <defs></defs>
    <g id="Page-1" stroke="none" stroke-width="1" fill="none" fill-rule="evenodd">
        <g id="404" transform="translate(-675.000000, -333.000000)" fill="#EC6608">
            <path d="M706.607143,349.357143 C707.035716,349.833336 707.119049,350.35714 706.857143,350.928571 L687.571429,392.25 C687.261903,392.845241 686.761908,393.142857 686.071429,393.142857 C685.97619,393.142857 685.809525,393.119048 685.571429,393.071429 C685.166665,392.95238 684.863096,392.726192 684.660714,392.392857 C684.458332,392.059522 684.404761,391.702383 684.5,391.321429 L691.535714,362.464286 L677.035714,366.071429 C676.940476,366.095238 676.79762,366.107143 676.607143,366.107143 C676.178569,366.107143 675.809525,365.976192 675.5,365.714286 C675.071426,365.357141 674.916666,364.89286 675.035714,364.321429 L682.214286,334.857143 C682.309524,334.523808 682.499999,334.250001 682.785714,334.035714 C683.07143,333.821428 683.40476,333.714286 683.785714,333.714286 L695.5,333.714286 C695.952383,333.714286 696.333332,333.863094 696.642857,334.160714 C696.952382,334.458335 697.107143,334.809522 697.107143,335.214286 C697.107143,335.404763 697.04762,335.619046 696.928571,335.857143 L690.821429,352.392857 L704.964286,348.892857 C705.154763,348.845238 705.297619,348.821429 705.392857,348.821429 C705.84524,348.821429 706.249998,348.999998 706.607143,349.357143 Z" id=""></path>
        </g>
    </g>
</svg>