<svg id="svg3377" xmlns="http://www.w3.org/2000/svg" viewBox="0 0 107.78 40.6"><defs><style>.cls-1{fill:#7bc144;}.cls-2{fill:#c1c1c1;}</style></defs><title>bring</title><g id="layer1"><g id="g3395"><path id="Fill-1" class="cls-1" d="M71.34,17H75V13.41H71.34V17Zm0,17H75V18.45H71.34V34.06h0Zm28.82-3.27c-2.72,0-3.28-1-3.28-4.64s0.55-4.77,3.28-4.77c3.15,0,4,.87,4,4.77s-0.84,4.64-4,4.64h0Zm4.31-12.34v1.23a7.76,7.76,0,0,0-4.93-1.51c-5.45,0-6.32,3.23-6.32,8,0,3.75.36,7.91,6.36,7.91a7.07,7.07,0,0,0,4.54-1.38,25.72,25.72,0,0,1-.06,2.73c-0.2,1.47-1.72,2.11-3.83,2.11s-2.69-.57-2.69-1.69h-4c0,4,3.6,4.77,6.78,4.77,2.92,0,6.75-.77,7.33-4.48a30.52,30.52,0,0,0,.13-3.72V18.45h-3.31Zm-19.33-.27a6.64,6.64,0,0,0-4.57,1.51V18.45H77.38V34.06H81V26.79c0-2.72-.29-5.41,3.67-5.41,3.18,0,2.89,1.44,2.89,4.45v8.23h3.67V25.54c0-3.39.26-7.37-6.13-7.37h0Zm-20.68,0a5.75,5.75,0,0,0-4.35,1.67V18.45H56.93V34.06H60.6V27.27A13,13,0,0,1,61,23.2a2.84,2.84,0,0,1,2.85-1.86c1.53,0,2.13.32,2.13,1.76h3.64c0-3.43-1.72-4.93-5.12-4.93h0ZM48.06,31C44.91,31,44,30.18,44,26.28s0.91-4.77,4.06-4.77c2.72,0,3.31,1.12,3.31,4.77S50.78,31,48.06,31h0Zm0.81-12.87c-1.72,0-3.6.19-4.8,1.41V13.4H40.41V34.06h3.31V32.81a6.7,6.7,0,0,0,4.57,1.5c6.32,0,6.75-4.23,6.75-8,0-4.74-.75-8.1-6.16-8.1h0Z" transform="translate(0)"/><path id="Fill-3" class="cls-2" d="M10.4,26.61a8.94,8.94,0,0,1-9-8.16H0a18,18,0,0,0,33.09,8.84,17.49,17.49,0,0,0,2.81-8.84H19.35a8.94,8.94,0,0,1-9,8.16h0Z" transform="translate(0)"/><path id="Fill-4" class="cls-1" d="M1.45,17a9,9,0,0,1,17.9,0H35.9A17.86,17.86,0,0,0,17.95,0,17.86,17.86,0,0,0,0,17H1.45" transform="translate(0)"/></g></g></svg>