<?xml version="1.0" encoding="utf-8"?>
<!-- Generator: Adobe Illustrator 25.0.1, SVG Export Plug-In . SVG Version: 6.00 Build 0)  -->
<svg version="1.1" id="Layer_1" xmlns="http://www.w3.org/2000/svg" xmlns:xlink="http://www.w3.org/1999/xlink" x="0px" y="0px"
	 viewBox="0 0 982 244.6" style="enable-background:new 0 0 982 244.6;" xml:space="preserve">
<style type="text/css">
	.st0{fill:#41CDA5;}
</style>
<g>
	<path class="st0" d="M79.5,83.6c-16.2,0-33.1,6.6-43.1,16.4l-1.7,1.6l-2,2.2V0H-0.1v241.4h20h9.8h3v-17.2l2,2.4l1.7,1.6
		c9.9,9.9,26.5,16.4,43.1,16.4c43.1,0,79.5-32.9,79.5-80.5S122.5,83.6,79.5,83.6z M77.8,215.1c-28.1,0-48-23-48-50.9s19.9-51,48-51
		c31.5,0,48,23,48,51S109.3,215.1,77.8,215.1z"/>
	<path class="st0" d="M278.2,180.5c-1,19.1-17.2,34.5-36.4,34.5c-22.2,0-32.5-11.8-33.1-32.9V86.8h-33.1v95.3
		c0,36.2,23.2,62.5,62.9,62.5c13.2,0,29.8-6.6,36.4-16.4l1.7-2.2l1.7-2.3v17.7h3.3h9.4h20.4V86.9h-33.1L278.2,180.5L278.2,180.5z"/>
	<path class="st0" d="M745.2,83.6c-43.1,0-76.2,32.9-76.2,80.5s34.8,80.5,76.2,80.5c31.5,0,54.6-16.4,67.9-39.4l-27.8-13.1
		c-5,13.1-18.5,23-38.4,23c-28.2,0-44.7-19.7-44.7-42.7h115.9v-9.9C818,114.8,784.9,83.6,745.2,83.6z M703.8,143.4
		c5-17.1,18.2-30.2,41.4-30.2c19.9,0,36.4,13.1,38.1,30.2H703.8z"/>
	<path class="st0" d="M909.1,83.6c-43.1,0-76.2,32.9-76.2,80.5s34.8,80.5,76.2,80.5c31.5,0,54.6-16.4,67.9-39.4l-27.8-13.1
		c-5,13.1-18.5,23-38.4,23c-28.1,0-44.7-19.7-44.7-42.7h112.6h3.3v-9.9C981.9,114.8,948.8,83.6,909.1,83.6z M867.7,143.4
		c5-17.1,18.2-30.2,41.4-30.2c19.9,0,36.4,13.1,38.1,30.2H867.7z"/>
	<path class="st0" d="M579.6,83.6c-16.2,0-33.1,6.6-43.1,16.4l-1.7,1.6l-2,2.2V0H500v241.4h20h9.8h3v-17.2l2,2.4l1.7,1.6
		c9.9,9.9,26.5,16.4,43.1,16.4c43.1,0,79.5-32.9,79.5-80.5S622.6,83.6,579.6,83.6z M577.9,215.1c-28.1,0-48-23-48-50.9
		s19.9-51,48-51c31.5,0,48,23,48,51S609.4,215.1,577.9,215.1z"/>
	<path class="st0" d="M324.6,164.1c0,47.7,36.4,80.5,79.5,80.5c16.6,0,33.1-6.6,43.1-16.4l1.7-1.6l2-2.4v17.2h3h9.8h20V0h-33v103.8
		l-2-2.2L447,100c-9.9-9.9-26.8-16.4-43.1-16.4C361,83.6,324.6,116.4,324.6,164.1z M357.7,164.1c0-27.9,16.6-51,48-51
		c28.1,0,48,23,48,51s-19.9,50.9-48,50.9C374.2,215.1,357.7,192.1,357.7,164.1z"/>
</g>
</svg>
