<svg id="Layer_1" data-name="Layer 1" xmlns="http://www.w3.org/2000/svg" viewBox="0 0 600.11 113.15"><defs><style>.cls-1{fill:#0498ba;}.cls-2{fill:#0598ba;}</style></defs><title>postnord</title><path class="cls-1" d="M0.5,23c8.16,0,16.32,0,24.48-.11,1.4,0,1.69.56,1.63,1.77-0.08,1.41,0,2.82,0,4.32a1.84,1.84,0,0,0,.74-0.15c17.25-15.29,43.53-9.19,51.75,12.42,5.86,15.4,4.75,30.33-6.38,43.34C61,98.31,38.64,99,27.51,90.11a5.28,5.28,0,0,0-1-.4V114c-7.9,0-15.8-.06-23.7,0-1.77,0-2.36-.24-2.36-2.23Q0.57,67.41.5,23ZM25.93,58.08c-0.11,8.51,5.78,14.65,14.2,14.8A13.8,13.8,0,0,0,54.5,59.1c0.15-9.21-5.38-15.39-13.88-15.51S26,49.34,25.93,58.08Z" transform="translate(-0.44 -0.9)"/><path class="cls-1" d="M600.5,94c-7.31-.48-14.64-0.08-22-0.21a15.58,15.58,0,0,0-2.25,0c-1.62.21-2-.56-1.91-2s0-2.79,0-4.54c-1.48,1.23-2.68,2.34-4,3.29-12.22,8.91-31.62,6.82-42-4.5-13-14.15-12.91-39.9-.16-54.19,11.56-13,33.69-14.57,45.26-5.36a3.55,3.55,0,0,0,.87.3c0-6.27.1-12.41-.06-18.53,0-1.87.67-2.39,2.29-2.7,6.95-1.29,13.87-2.68,20.81-4a1.11,1.11,0,0,0,1-.51c1.71-.38,2.05.29,2,2Q600.45,48.5,600.5,94Zm-54-35.84c0,8.7,5.76,14.77,14.1,14.81,8.52,0,14.44-6,14.48-14.72,0-8.51-5.9-14.47-14.41-14.46S546.51,49.62,546.5,58.16Z" transform="translate(-0.44 -0.9)"/><path class="cls-1" d="M418.68,20.47c8,0.12,14.64,1.24,21,4,15,6.42,22.89,20.11,21.58,36.41-1.56,19.49-14.82,30.8-32.3,34.1a51.59,51.59,0,0,1-30.36-3c-15.44-6.57-22.25-19.69-21.44-35.48,1.16-22.51,17.57-33.09,35.11-35.44C414.75,20.69,417.25,20.59,418.68,20.47ZM404.8,58.29c0,8.48,6.16,14.71,14.42,14.59s14.2-6.06,14.2-14.49c0-8.79-5.86-14.84-14.39-14.8S404.79,49.65,404.8,58.29Z" transform="translate(-0.44 -0.9)"/><path class="cls-1" d="M129.18,20.48c10.91,0.27,21.1,2.74,29.69,9.91,7.15,6,10.82,13.79,11.62,23,0.92,10.49-1,20.25-8.05,28.49-6,7.06-13.9,10.94-22.86,12.82a52.14,52.14,0,0,1-31.11-2.57C91.75,85.27,85.12,70.63,86.74,54.2c1.81-18.37,14.73-29.35,31.76-32.67A54.82,54.82,0,0,1,129.18,20.48Zm-0.43,23.1c-8.52-.07-14.48,5.89-14.65,14.64a14.16,14.16,0,0,0,14.44,14.63c8.25,0,14.27-6,14.37-14.4C143,49.93,137,43.65,128.74,43.58Z" transform="translate(-0.44 -0.9)"/><path class="cls-2" d="M324.64,28.65c8.59-8.39,18.7-9.74,29.54-6.83,9.83,2.64,14.45,10,16.27,19.53a40.39,40.39,0,0,1,.64,7.7c0,14.08,0,28.16,0,42.24,0,1.88-.36,2.59-2.43,2.55-7.16-.13-14.33-0.11-21.49,0-1.94,0-2.55-.47-2.54-2.49,0.05-11.74,0-23.49-.1-35.24a19.22,19.22,0,0,0-.35-3.47c-1.21-6.33-3.75-8.44-9.8-8.21-5.82.22-9.37,3.37-9.88,9.18-0.58,6.56-.16,13.15-0.22,19.73-0.05,6.08-.07,12.16,0,18.24,0,1.78-.55,2.26-2.27,2.24q-11-.12-22,0c-1.61,0-2.11-.4-2.1-2.08Q298,58.38,298,25c0-1.86.64-2.15,2.29-2.13,7.17,0.08,14.33.11,21.49,0,2.09,0,2.84.56,2.59,2.64A5.21,5.21,0,0,0,324.64,28.65Z" transform="translate(-0.44 -0.9)"/><path class="cls-2" d="M211.21,20.55a124.49,124.49,0,0,1,24.47,2.81c1.64,0.39,2,.89,1.55,2.51-1.33,5.24-2.58,10.5-3.66,15.79-0.4,2-1.13,2-2.84,1.53-8.1-2.42-16.33-4-24.85-2.74a13.93,13.93,0,0,0-1.93.47c-1.56.46-2.79,1.38-2.77,3.1s1.41,2.57,2.95,2.92c5.6,1.27,11.37,1.59,16.94,3a48.34,48.34,0,0,1,8.71,3c7.72,3.67,11.16,9.68,10.91,18.22-0.3,10.11-5.48,16.61-14.47,20.48-7.25,3.12-14.95,3.9-22.7,4.07A97,97,0,0,1,174.91,92c-1.52-.43-1.94-0.91-1.49-2.54C175,84,176.36,78.4,177.67,72.81c0.42-1.8,1.07-1.93,2.69-1.31,8.63,3.32,17.51,5.26,26.83,4.57a10.77,10.77,0,0,0,3.63-.83,3.14,3.14,0,0,0,2.18-3,3,3,0,0,0-2.27-2.94c-2.9-1.11-6-1.36-9-1.76a63.19,63.19,0,0,1-15.5-3.65,20.31,20.31,0,0,1-5.58-34.48c6.47-5.6,14.38-7.42,22.58-8.32C206.09,20.74,209,20.68,211.21,20.55Z" transform="translate(-0.44 -0.9)"/><path class="cls-2" d="M245.5,50.27c0-13.67,0-27.33,0-41,0-1.9.49-2.35,2.35-2.32,7.25,0.11,14.5.13,21.75,0,2,0,2.34.65,2.29,2.42-0.12,3.83,0,7.67-.08,11.5-0.06,1.72.58,2.1,2.16,2.08,6.58-.07,13.17,0,19.75-0.06,1.73,0,2.28.25,1.31,2q-5.13,9.28-10.08,18.67A2.43,2.43,0,0,1,282.34,45c-2.75-.08-5.51.1-8.25-0.07-1.89-.12-2.36.48-2.35,2.35,0.08,14.42,0,28.83,0,43.25,0,3.23,0,3.23-3.2,3.23-6.83,0-13.67-.08-20.5.05-2.05,0-2.66-.46-2.64-2.57C245.55,77.6,245.5,63.94,245.5,50.27Z" transform="translate(-0.44 -0.9)"/><path class="cls-1" d="M493.58,30.51c6-8.06,13.94-9.13,22.5-8.47,1.56,0.12,2.31.72,2.24,2.49-0.26,6.73-.4,13.47-0.52,20.21,0,1.6-.53,2-2.11,1.6a27.26,27.26,0,0,0-9.17-.75c-8.64.74-12.9,5.29-12.94,14,0,10.49-.07,21,0,31.48,0,2.09-.35,2.88-2.68,2.82-7.07-.17-14.16-0.1-21.23,0-1.61,0-2.34-.23-2.34-2.12q0.1-33.35,0-66.71c0-1.6.41-2.13,2.07-2.11q11.12,0.13,22.23,0c1.59,0,2,.51,1.92,2C493.49,26.53,493.58,28.19,493.58,30.51Z" transform="translate(-0.44 -0.9)"/></svg>